<svg width="801" height="114" viewBox="0 0 801 114" fill="none" xmlns="http://www.w3.org/2000/svg">
<rect y="45" width="9" height="26" rx="4.5" fill="white"/>
<rect x="18" y="37" width="9" height="41" rx="4.5" fill="white"/>
<rect x="36" y="37" width="9" height="42" rx="4.5" fill="white"/>
<rect x="72" y="37" width="9" height="42" rx="4.5" fill="white"/>
<rect x="90" y="37" width="9" height="42" rx="4.5" fill="white"/>
<rect x="126" y="1" width="9" height="113" rx="4.5" fill="white"/>
<rect x="162" y="33" width="9" height="49" rx="4.5" fill="white"/>
<rect x="198" y="22" width="9" height="70" rx="4.5" fill="white"/>
<rect x="108" y="22" width="9" height="70" rx="4.5" fill="white"/>
<rect x="144" y="22" width="9" height="70" rx="4.5" fill="white"/>
<rect x="180" y="37" width="9" height="42" rx="4.5" fill="white"/>
<rect x="216" y="11" width="9" height="92" rx="4.5" fill="white"/>
<rect x="234" y="1" width="9" height="113" rx="4.5" fill="white"/>
<rect x="252" y="37" width="9" height="42" rx="4.5" fill="white"/>
<rect x="270" y="27" width="9" height="61" rx="4.5" fill="white"/>
<rect x="288" y="17" width="9" height="82" rx="4.5" fill="white"/>
<rect x="342" y="20" width="9" height="72" rx="4.5" fill="white"/>
<rect x="306" y="1" width="9" height="113" rx="4.5" fill="white"/>
<rect x="378" y="1" width="9" height="113" rx="4.5" fill="white"/>
<rect x="450" width="9" height="113" rx="4.5" fill="white"/>
<rect x="522" y="1" width="9" height="113" rx="4.5" fill="white"/>
<rect x="486" width="9" height="113" rx="4.5" fill="white"/>
<rect x="324" y="32" width="9" height="50" rx="4.5" fill="white"/>
<rect x="360" y="32" width="9" height="50" rx="4.5" fill="white"/>
<rect x="396" y="26" width="9" height="63" rx="4.5" fill="white"/>
<rect x="414" y="26" width="9" height="63" rx="4.5" fill="white"/>
<rect x="558" y="14" width="9" height="88" rx="4.5" fill="white"/>
<rect x="594" y="13" width="9" height="88" rx="4.5" fill="white"/>
<rect x="432" y="32" width="9" height="50" rx="4.5" fill="white"/>
<rect x="468" y="14" width="9" height="88" rx="4.5" fill="white"/>
<rect x="504" y="26" width="9" height="63" rx="4.5" fill="white"/>
<rect x="540" y="26" width="9" height="63" rx="4.5" fill="white"/>
<rect x="576" y="32" width="9" height="50" rx="4.5" fill="white"/>
<rect x="612" y="22" width="9" height="72" rx="4.5" fill="white"/>
<rect x="648" y="34" width="9" height="49" rx="4.5" fill="white"/>
<rect x="684" y="2" width="9" height="111" rx="4.5" fill="white"/>
<rect x="720" y="14" width="9" height="88" rx="4.5" fill="white"/>
<rect x="738" y="2" width="9" height="112" rx="4.5" fill="white"/>
<rect x="756" y="17" width="9" height="82" rx="4.5" fill="white"/>
<rect x="792" y="45" width="9" height="24" rx="4.5" fill="white"/>
<rect x="774" y="32" width="9" height="54" rx="4.5" fill="white"/>
<rect x="702" y="33" width="9" height="47" rx="4.5" fill="white"/>
<rect x="630" y="34" width="9" height="47" rx="4.5" fill="white"/>
<rect x="666" y="14" width="9" height="88" rx="4.5" fill="white"/>
<rect x="54" y="1" width="9" height="113" rx="4.5" fill="white"/>
</svg>
