<svg width="40" height="41" viewBox="0 0 40 41" fill="none" xmlns="http://www.w3.org/2000/svg">
<g clip-path="url(#clip0_2001_3248)">
<path d="M34.9998 8.6597V36.7025C34.9998 38.9117 33.209 40.7025 30.9998 40.7025H9C6.79086 40.7025 5 38.9117 5 36.7025V4.70252C5 2.49338 6.79086 0.702515 9 0.702515H26.3367L34.9998 8.6597Z" fill="#6172F3"/>
<g clip-path="url(#clip1_2001_3248)">
<path d="M26.6667 31.3692C26.6667 31.7228 26.5262 32.0619 26.2762 32.312C26.0261 32.562 25.687 32.7025 25.3333 32.7025H14.6667C14.3131 32.7025 13.9739 32.562 13.7239 32.312C13.4738 32.0619 13.3333 31.7228 13.3333 31.3692V22.0358C13.3333 21.6822 13.4738 21.3431 13.7239 21.093C13.9739 20.843 14.3131 20.7025 14.6667 20.7025H18L19.3333 22.7025H25.3333C25.687 22.7025 26.0261 22.843 26.2762 23.093C26.5262 23.3431 26.6667 23.6822 26.6667 24.0358V31.3692Z" stroke="white" stroke-width="1.33333" stroke-linecap="round" stroke-linejoin="round"/>
</g>
<g filter="url(#filter0_d_2001_3248)">
<path d="M34.9998 8.6597H27.3367C26.7844 8.6597 26.3367 8.21199 26.3367 7.6597V0.702515L34.9998 8.6597Z" fill="#C7D7FE"/>
</g>
</g>
<defs>
<filter id="filter0_d_2001_3248" x="23.3367" y="-0.297485" width="12.6631" height="11.9572" filterUnits="userSpaceOnUse" color-interpolation-filters="sRGB">
<feFlood flood-opacity="0" result="BackgroundImageFix"/>
<feColorMatrix in="SourceAlpha" type="matrix" values="0 0 0 0 0 0 0 0 0 0 0 0 0 0 0 0 0 0 127 0" result="hardAlpha"/>
<feOffset dx="-1" dy="1"/>
<feGaussianBlur stdDeviation="1"/>
<feComposite in2="hardAlpha" operator="out"/>
<feColorMatrix type="matrix" values="0 0 0 0 0 0 0 0 0 0 0 0 0 0 0 0 0 0 0.2 0"/>
<feBlend mode="normal" in2="BackgroundImageFix" result="effect1_dropShadow_2001_3248"/>
<feBlend mode="normal" in="SourceGraphic" in2="effect1_dropShadow_2001_3248" result="shape"/>
</filter>
<clipPath id="clip0_2001_3248">
<rect width="40" height="40" fill="white" transform="translate(0 0.702515)"/>
</clipPath>
<clipPath id="clip1_2001_3248">
<rect width="16" height="16" fill="white" transform="translate(12 18.7025)"/>
</clipPath>
</defs>
</svg>
