<svg width="40" height="41" viewBox="0 0 40 41" fill="none" xmlns="http://www.w3.org/2000/svg">
<g clip-path="url(#clip0_2001_3253)">
<path d="M34.9998 8.6597V36.7025C34.9998 38.9117 33.209 40.7025 30.9998 40.7025H9C6.79086 40.7025 5 38.9117 5 36.7025V4.70252C5 2.49338 6.79086 0.702515 9 0.702515H26.3367L34.9998 8.6597Z" fill="#6172F3"/>
<path d="M24.6667 20.7025H15.3333C14.597 20.7025 14 21.2995 14 22.0358V31.3692C14 32.1056 14.597 32.7025 15.3333 32.7025H24.6667C25.403 32.7025 26 32.1056 26 31.3692V22.0358C26 21.2995 25.403 20.7025 24.6667 20.7025Z" stroke="white" stroke-width="1.33333" stroke-linecap="round" stroke-linejoin="round"/>
<path d="M26 28.7025L22.6666 25.3692L15.3333 32.7025" stroke="white" stroke-width="1.33333" stroke-linecap="round" stroke-linejoin="round"/>
<path d="M17.6667 25.3692C18.219 25.3692 18.6667 24.9215 18.6667 24.3692C18.6667 23.8169 18.219 23.3692 17.6667 23.3692C17.1144 23.3692 16.6667 23.8169 16.6667 24.3692C16.6667 24.9215 17.1144 25.3692 17.6667 25.3692Z" stroke="white" stroke-width="1.33333" stroke-linecap="round" stroke-linejoin="round"/>
<g filter="url(#filter0_d_2001_3253)">
<path d="M34.9998 8.6597H27.3367C26.7844 8.6597 26.3367 8.21199 26.3367 7.6597V0.702515L34.9998 8.6597Z" fill="#C7D7FE"/>
</g>
</g>
<defs>
<filter id="filter0_d_2001_3253" x="23.3367" y="-0.297485" width="12.6631" height="11.9572" filterUnits="userSpaceOnUse" color-interpolation-filters="sRGB">
<feFlood flood-opacity="0" result="BackgroundImageFix"/>
<feColorMatrix in="SourceAlpha" type="matrix" values="0 0 0 0 0 0 0 0 0 0 0 0 0 0 0 0 0 0 127 0" result="hardAlpha"/>
<feOffset dx="-1" dy="1"/>
<feGaussianBlur stdDeviation="1"/>
<feComposite in2="hardAlpha" operator="out"/>
<feColorMatrix type="matrix" values="0 0 0 0 0 0 0 0 0 0 0 0 0 0 0 0 0 0 0.2 0"/>
<feBlend mode="normal" in2="BackgroundImageFix" result="effect1_dropShadow_2001_3253"/>
<feBlend mode="normal" in="SourceGraphic" in2="effect1_dropShadow_2001_3253" result="shape"/>
</filter>
<clipPath id="clip0_2001_3253">
<rect width="40" height="40" fill="white" transform="translate(0 0.702515)"/>
</clipPath>
</defs>
</svg>
