<svg width="40" height="41" viewBox="0 0 40 41" fill="none" xmlns="http://www.w3.org/2000/svg">
<g clip-path="url(#clip0_2001_3288)">
<path d="M34.9998 8.6597V36.7025C34.9998 38.9117 33.209 40.7025 30.9998 40.7025H9C6.79086 40.7025 5 38.9117 5 36.7025V4.70252C5 2.49338 6.79086 0.702515 9 0.702515H26.3367L34.9998 8.6597Z" fill="#F04438"/>
<path d="M25.0745 27.6661C24.0764 27.6661 22.8274 27.8402 22.4187 27.9014C20.7274 26.1352 20.2462 25.1313 20.138 24.8636C20.2847 24.4868 20.795 23.0551 20.8676 21.2163C20.9033 20.2957 20.7089 19.6078 20.2894 19.1717C19.8707 18.7364 19.3638 18.7025 19.2185 18.7025C18.7089 18.7025 17.8539 18.9602 17.8539 20.6859C17.8539 22.1833 18.5521 23.7721 18.745 24.1827C17.7283 27.1431 16.6367 29.1697 16.405 29.5864C12.3195 31.1247 12 32.6119 12 33.0335C12 33.7909 12.5395 34.2432 13.443 34.2432C15.6384 34.2432 17.6418 30.5574 17.9731 29.9174C19.5323 29.2961 21.6192 28.9113 22.1497 28.8195C23.6715 30.2691 25.4314 30.6559 26.1623 30.6559C26.7122 30.6559 27.9999 30.6559 27.9999 29.3318C28 28.1023 26.4241 27.6661 25.0745 27.6661ZM24.9687 28.5353C26.1545 28.5353 26.4679 28.9274 26.4679 29.1348C26.4679 29.2649 26.4185 29.6894 25.7829 29.6894C25.213 29.6894 24.2289 29.36 23.2607 28.6453C23.6645 28.5922 24.2619 28.5353 24.9687 28.5353ZM19.1562 19.545C19.2644 19.545 19.3355 19.5798 19.3942 19.6612C19.7353 20.1344 19.4603 21.6807 19.1256 22.8908C18.8025 21.8532 18.56 20.2612 18.9012 19.7011C18.9678 19.5918 19.0441 19.545 19.1562 19.545ZM18.5803 28.8071C19.0097 27.9398 19.4908 26.6758 19.7529 25.9609C20.2774 26.8388 20.9829 27.6539 21.3909 28.0958C20.1205 28.3636 19.1594 28.6312 18.5803 28.8071ZM12.8528 33.1492C12.8245 33.1156 12.8203 33.0449 12.8417 32.96C12.8863 32.7821 13.2279 31.9002 15.6985 30.7951C15.3447 31.3523 14.7917 32.1484 14.1842 32.7432C13.7565 33.1435 13.4235 33.3465 13.1944 33.3465C13.1124 33.3465 12.9995 33.3242 12.8528 33.1492Z" fill="white"/>
<g filter="url(#filter0_d_2001_3288)">
<path d="M34.9998 8.6597H27.3367C26.7844 8.6597 26.3367 8.21199 26.3367 7.6597V0.702515L34.9998 8.6597Z" fill="#FECDCA"/>
</g>
</g>
<defs>
<filter id="filter0_d_2001_3288" x="23.3367" y="-0.297485" width="12.6631" height="11.9572" filterUnits="userSpaceOnUse" color-interpolation-filters="sRGB">
<feFlood flood-opacity="0" result="BackgroundImageFix"/>
<feColorMatrix in="SourceAlpha" type="matrix" values="0 0 0 0 0 0 0 0 0 0 0 0 0 0 0 0 0 0 127 0" result="hardAlpha"/>
<feOffset dx="-1" dy="1"/>
<feGaussianBlur stdDeviation="1"/>
<feComposite in2="hardAlpha" operator="out"/>
<feColorMatrix type="matrix" values="0 0 0 0 0 0 0 0 0 0 0 0 0 0 0 0 0 0 0.2 0"/>
<feBlend mode="normal" in2="BackgroundImageFix" result="effect1_dropShadow_2001_3288"/>
<feBlend mode="normal" in="SourceGraphic" in2="effect1_dropShadow_2001_3288" result="shape"/>
</filter>
<clipPath id="clip0_2001_3288">
<rect width="40" height="40" fill="white" transform="translate(0 0.702515)"/>
</clipPath>
</defs>
</svg>
