<svg width="40" height="41" viewBox="0 0 40 41" fill="none" xmlns="http://www.w3.org/2000/svg">
<g clip-path="url(#clip0_2001_3283)">
<path d="M34.9998 8.6597V36.7025C34.9998 38.9117 33.209 40.7025 30.9998 40.7025H9C6.79086 40.7025 5 38.9117 5 36.7025V4.70252C5 2.49338 6.79086 0.702515 9 0.702515H26.3367L34.9998 8.6597Z" fill="#17B26A"/>
<path d="M14 26.7025L26 26.7025M14 26.7025L14 22.0358C14 21.6822 14.1405 21.3431 14.3905 21.093C14.6406 20.843 14.9797 20.7025 15.3333 20.7025L24.6667 20.7025C25.0203 20.7025 25.3594 20.843 25.6095 21.093C25.8595 21.3431 26 21.6822 26 22.0358L26 26.7025L14 26.7025ZM14 26.7025L14 31.3692C14 31.7228 14.1405 32.0619 14.3905 32.312C14.6406 32.562 14.9797 32.7025 15.3333 32.7025L24.6667 32.7025C25.0203 32.7025 25.3594 32.562 25.6095 32.312C25.8595 32.0619 26 31.7228 26 31.3692L26 26.7025L14 26.7025Z" stroke="white" stroke-width="1.33333" stroke-linecap="round" stroke-linejoin="round"/>
<g filter="url(#filter0_d_2001_3283)">
<path d="M34.9998 8.6597H27.3367C26.7844 8.6597 26.3367 8.21199 26.3367 7.6597V0.702515L34.9998 8.6597Z" fill="#ABEFC6"/>
</g>
</g>
<defs>
<filter id="filter0_d_2001_3283" x="23.3367" y="-0.297485" width="12.6631" height="11.9572" filterUnits="userSpaceOnUse" color-interpolation-filters="sRGB">
<feFlood flood-opacity="0" result="BackgroundImageFix"/>
<feColorMatrix in="SourceAlpha" type="matrix" values="0 0 0 0 0 0 0 0 0 0 0 0 0 0 0 0 0 0 127 0" result="hardAlpha"/>
<feOffset dx="-1" dy="1"/>
<feGaussianBlur stdDeviation="1"/>
<feComposite in2="hardAlpha" operator="out"/>
<feColorMatrix type="matrix" values="0 0 0 0 0 0 0 0 0 0 0 0 0 0 0 0 0 0 0.2 0"/>
<feBlend mode="normal" in2="BackgroundImageFix" result="effect1_dropShadow_2001_3283"/>
<feBlend mode="normal" in="SourceGraphic" in2="effect1_dropShadow_2001_3283" result="shape"/>
</filter>
<clipPath id="clip0_2001_3283">
<rect width="40" height="40" fill="white" transform="translate(0 0.702515)"/>
</clipPath>
</defs>
</svg>
