<svg width="40" height="41" viewBox="0 0 40 41" fill="none" xmlns="http://www.w3.org/2000/svg">
<g clip-path="url(#clip0_2001_3258)">
<path d="M34.9998 8.6597V36.7025C34.9998 38.9117 33.209 40.7025 30.9998 40.7025H9C6.79086 40.7025 5 38.9117 5 36.7025V4.70252C5 2.49338 6.79086 0.702515 9 0.702515H26.3367L34.9998 8.6597Z" fill="#6172F3"/>
<g clip-path="url(#clip1_2001_3258)">
<path d="M25.2133 20.0358H14.7866C13.984 20.0358 13.3333 20.6865 13.3333 21.4892V31.9158C13.3333 32.7185 13.984 33.3692 14.7866 33.3692H25.2133C26.016 33.3692 26.6666 32.7185 26.6666 31.9158V21.4892C26.6666 20.6865 26.016 20.0358 25.2133 20.0358Z" stroke="white" stroke-width="1.33333" stroke-linecap="round" stroke-linejoin="round"/>
<path d="M16.6667 20.0358V33.3692" stroke="white" stroke-width="1.33333" stroke-linecap="round" stroke-linejoin="round"/>
<path d="M23.3333 20.0358V33.3692" stroke="white" stroke-width="1.33333" stroke-linecap="round" stroke-linejoin="round"/>
<path d="M13.3333 26.7025H26.6666" stroke="white" stroke-width="1.33333" stroke-linecap="round" stroke-linejoin="round"/>
<path d="M13.3333 23.3692H16.6666" stroke="white" stroke-width="1.33333" stroke-linecap="round" stroke-linejoin="round"/>
<path d="M13.3333 30.0358H16.6666" stroke="white" stroke-width="1.33333" stroke-linecap="round" stroke-linejoin="round"/>
<path d="M23.3333 30.0358H26.6666" stroke="white" stroke-width="1.33333" stroke-linecap="round" stroke-linejoin="round"/>
<path d="M23.3333 23.3692H26.6666" stroke="white" stroke-width="1.33333" stroke-linecap="round" stroke-linejoin="round"/>
</g>
<g filter="url(#filter0_d_2001_3258)">
<path d="M34.9998 8.6597H27.3367C26.7844 8.6597 26.3367 8.21199 26.3367 7.6597V0.702515L34.9998 8.6597Z" fill="#C7D7FE"/>
</g>
</g>
<defs>
<filter id="filter0_d_2001_3258" x="23.3367" y="-0.297485" width="12.6631" height="11.9572" filterUnits="userSpaceOnUse" color-interpolation-filters="sRGB">
<feFlood flood-opacity="0" result="BackgroundImageFix"/>
<feColorMatrix in="SourceAlpha" type="matrix" values="0 0 0 0 0 0 0 0 0 0 0 0 0 0 0 0 0 0 127 0" result="hardAlpha"/>
<feOffset dx="-1" dy="1"/>
<feGaussianBlur stdDeviation="1"/>
<feComposite in2="hardAlpha" operator="out"/>
<feColorMatrix type="matrix" values="0 0 0 0 0 0 0 0 0 0 0 0 0 0 0 0 0 0 0.2 0"/>
<feBlend mode="normal" in2="BackgroundImageFix" result="effect1_dropShadow_2001_3258"/>
<feBlend mode="normal" in="SourceGraphic" in2="effect1_dropShadow_2001_3258" result="shape"/>
</filter>
<clipPath id="clip0_2001_3258">
<rect width="40" height="40" fill="white" transform="translate(0 0.702515)"/>
</clipPath>
<clipPath id="clip1_2001_3258">
<rect width="16" height="16" fill="white" transform="translate(12 18.7025)"/>
</clipPath>
</defs>
</svg>
